<?xml version="1.0" encoding="utf-8"?>
<!-- Generator: Adobe Illustrator 27.1.0, SVG Export Plug-In . SVG Version: 6.00 Build 0)  -->
<svg version="1.1" xmlns="http://www.w3.org/2000/svg" xmlns:xlink="http://www.w3.org/1999/xlink" x="0px" y="0px"
	 viewBox="0 0 334.7 69" style="enable-background:new 0 0 334.7 69;" xml:space="preserve">
<style type="text/css">
	.st0{display:none;}
	.st1{display:inline;fill:#FFFFFF;}
	.st2{display:inline;fill:#5B056A;}
	.st3{fill:#5B056A;}
	.st4{fill:#FFFFFF;}
	.st5{fill:#0B1761;}
</style>
<g id="background" class="st0">
	<rect x="-41" y="-39.6" class="st1" width="416.7" height="140.9"/>
</g>
<g id="V_spacing" class="st0">
	<polygon class="st2" points="265.7,0 263.2,0 251.7,-25 255,-25 264.6,-3.7 274,-25 277.1,-25 265.7,0 	"/>
	<polygon class="st2" points="253.6,91.7 251.1,91.7 239.5,66.7 242.9,66.7 252.4,88 261.8,66.7 265,66.7 253.6,91.7 	"/>
	<polygon class="st2" points="359.8,40 359.8,42.5 334.7,54.1 334.7,50.7 356,41.2 334.7,31.8 334.7,28.6 359.8,40 	"/>
	<polygon class="st2" points="0,40 0,42.5 -25,54.1 -25,50.7 -3.7,41.2 -25,31.8 -25,28.6 0,40 	"/>
</g>
<g id="artwork">
	<g>
		<g>
			<path class="st3" d="M14.1,61.9h-2.5L0,36.9h3.3l9.5,21.3l9.4-21.3h3.2L14.1,61.9L14.1,61.9z M31,34.1h-2.9v-3.3H31V34.1L31,34.1
				z M31,61.9h-2.9v-25H31V61.9L31,61.9z M78.1,34h-2.9v-3.3h2.9V34L78.1,34z M78.1,61.9h-2.9v-25h2.9V61.9L78.1,61.9z M150,61.9
				h-2.9V30.7h2.9V61.9L150,61.9z M216.2,34h-2.8v-3.3h2.8V34L216.2,34z M216.2,61.9h-2.8v-25h2.8V61.9L216.2,61.9z M139.3,61.9
				h-2.8V30.7h2.8v6.1h4.9v2.7h-4.9V61.9L139.3,61.9z M205.6,61.9h-2.8V30.7h2.8v6.1h4.9v2.7h-4.9V61.9L205.6,61.9z M121.5,62.4
				c-4.6,0-9.3-2.7-9.3-7.9v-0.1c0-5.4,3.8-8.2,11.2-8.2h7v-0.1c0-4.6-2.6-6.9-7.7-6.9c-2.5,0-4.8,0.6-7.4,1.9l-0.2,0.1l-1.1-2.4
				l0.2-0.1c2.8-1.4,5.9-2.2,8.8-2.2c3.4,0,5.9,0.9,7.6,2.6c1.7,1.7,2.5,3.9,2.5,7v15.7h-2.8v-3.3C129.2,59.9,126.3,62.4,121.5,62.4
				L121.5,62.4z M115.1,54.4c0,3.1,2.8,5.4,6.6,5.4c4.3,0,8.7-2.5,8.7-7.9v-3h-6.7C117.6,48.8,115.1,50.4,115.1,54.4L115.1,54.4
				L115.1,54.4z M162.8,62.4c-4.6,0-9.3-2.7-9.3-7.9v-0.1c0-5.4,3.8-8.2,11.2-8.2h7v-0.1c0-4.6-2.6-6.9-7.7-6.9
				c-2.5,0-4.8,0.6-7.4,1.9l-0.2,0.1l-1-2.4l0.2-0.1c2.8-1.4,5.9-2.2,8.8-2.2c3.4,0,5.9,0.9,7.6,2.6c1.7,1.7,2.5,3.9,2.5,7v15.7
				h-2.8v-3.3C170.5,59.9,167.6,62.4,162.8,62.4L162.8,62.4z M156.4,54.4c0,3.1,2.8,5.4,6.6,5.4c4.3,0,8.7-2.5,8.7-7.9v-3h-6.7
				C158.8,48.8,156.4,50.4,156.4,54.4L156.4,54.4L156.4,54.4z M103,61.9h-2.9V48.6c0-2.9,0-9.6-7.3-9.6c-5.2,0-8.3,4-8.3,10.6v12.2
				h-2.8v-25h2.8V41c1-1.5,3.6-4.6,8.7-4.6c6.4,0,9.9,3.9,9.9,10.9V61.9L103,61.9z M199.3,61.9h-2.9V48.6c0-2.9,0-9.6-7.3-9.6
				c-5.2,0-8.3,4-8.3,10.6v12.2h-2.8v-25h2.8V41c1-1.5,3.6-4.6,8.7-4.6c6.4,0,9.9,3.9,9.9,10.9V61.9L199.3,61.9z M59.9,69
				c-6.5,0-10.6-3.4-11.1-3.8L48.7,65l1.6-2.3l0.2,0.1c2.5,1.7,5.3,3.4,9.5,3.4c5.8,0,9-3.5,9-9.8v-1.3c-1.7,2.6-5.2,4.9-9.6,4.9
				c-2.9,0-5.9-1.2-8-3.2c-2.3-2.2-3.6-5.2-3.6-8.5v-0.1c0-3.3,1.3-6.4,3.6-8.6c2.2-2.1,5.1-3.2,8-3.2c4.4,0,8,2.2,9.6,4.7v-4.3h2.8
				v19.5c0,4.2-0.9,7.1-3.1,9.2C66.6,67.8,63.5,69,59.9,69L59.9,69z M59.6,39.2c-5.2,0-8.9,3.8-8.9,9v0.1c0,5.1,3.9,9.1,8.9,9.1
				c4.5,0,9.4-3.5,9.4-9v-0.1C68.9,42.6,64.2,39.2,59.6,39.2L59.6,39.2z M232,62.1c-7,0-12.5-5.6-12.5-12.8v-0.1
				c0-7.3,5.5-12.9,12.5-12.9c5.7,0,9,3.4,9.9,4.4l0.1,0.2l-1.8,1.9l-0.2-0.2c-2.5-2.4-5.1-3.6-8.1-3.6c-5.3,0-9.5,4.5-9.5,10.1v0.1
				c0,5.7,4.2,10.2,9.7,10.2c4,0,6.7-2.3,7.9-3.7l0.2-0.2l1.9,1.7l-0.1,0.2C240.9,59.1,237.3,62.1,232,62.1L232,62.1z M37.4,61.9
				h-2.9v-25h2.9v6c2.2-4,6.1-6.4,10.6-6.2l0.3,0v3h-0.5c-5.1,0-10.3,3.7-10.3,11.9V61.9L37.4,61.9z"/>
			<g>
				<g>
					<defs>
						<path id="SVGID_1_" d="M288.9,0h-24.5c-7.6,0-9.4,1.2-12.4,4.6l-21.9,24c17.5-0.8,22.9,16.8,40.6,11.9L288.9,0z"/>
					</defs>
					<use xlink:href="#SVGID_1_"  style="overflow:visible;fill:#DA0530;"/>
					<clipPath id="SVGID_00000180335928963958581570000009225320952604077222_">
						<use xlink:href="#SVGID_1_"  style="overflow:visible;"/>
					</clipPath>
				</g>
				<path class="st4" d="M256.8,9.4c0,0,1.1-2,1.9-2.7c0,0,0.9-0.6,1-1.5c0,0,0.1-0.6-0.4-1c0,0-1.3-1.1-2.4,0.8
					c0,0-5.1,9.6-6.8,19.3c0,0-0.1,0.3-0.2-0.6c0,0-0.7-8.1-0.8-8.4c0-0.3,0-1-0.7-1.1c0,0-0.8-0.1-1.3,1.1l-2.2,5.5
					c0,0-0.4,0.7,0.2,1c0,0,0.7,0.4,1.1-0.6l1-2.2c0.2-0.5,0.4-0.4,0.4-0.4c0.1,0,0.2,0.5,0.2,0.5s0.9,10.9,0.9,11
					c0,0.1,0.1,1,0.8,1c0.5,0,0.7-0.6,0.8-1.1c0.1-0.5,1.1-5.7,2.7-11.3C254.2,15,255.6,11.3,256.8,9.4z M255.3,18.9
					c-1,0.2-1.2,1.4-1.2,1.4l-0.6,4.8c-0.1,0.9,1.1,0.3,1.1,0.3c0.5-0.3,0.6-0.9,0.6-0.9l0.2-1.2L256,20
					C256.2,18.7,255.3,18.9,255.3,18.9z M257.4,19.3c0,0-0.3,2.5-0.4,3c0,0-0.5,2.1,0.7,1.7c0,0,0.9-0.2,1-1.5l0.2-1.8
					c0,0,0.1-1.3,1.1-1.9c0,0,1.1-0.5,0.8-1.2c0,0-0.2-0.6-0.9-0.3c-0.5,0.2-0.8,0.3-0.8,0.3s-0.7,0.1-0.8,0.1
					C258.4,17.8,257.5,17.8,257.4,19.3z M256.5,16.5c0.7-0.6,0.5-1,0.5-1c-0.3-0.7-1.2,0-1.2,0c-0.8,0.6-0.5,1.1-0.5,1.1
					C255.7,17.3,256.5,16.5,256.5,16.5z M268,20c0,0,0.9-0.2,1-1.2c0,0,0.5-3.8,0.6-3.9c0-0.1,0.3-1.1-0.4-1c0,0-0.9,0.2-1,1
					l-0.7,3.7l-0.1,0.8C267.4,19.4,267.2,20.2,268,20z M270.1,12c0,0,0.7-0.6,0.4-1.1c0,0-0.3-0.5-1.2,0.2c0,0-0.8,0.7-0.3,1.1
					C269,12.2,269.5,12.7,270.1,12z M279.5,16.7c-0.2-0.3-0.6-0.5-1.4-0.2c-0.9,0.4-1.2,0.5-1.2,0.6c0,0-1.1,0.5-0.9-0.9l0.3-3.3
					c0,0,0.1-1.2-0.8-1.2c0,0-0.5-0.1-1.3,0.6c0,0-0.4,0.4-0.7,0.4c-0.2,0-0.4,0.1-0.7,0c-0.3-0.1-0.6-0.1-0.8,0c0,0-0.9,0.2-1,1.5
					l-0.4,2.9c0,0-0.2,1.1-0.1,1.4c0,0,0.1,0.5,0.9,0.2c0,0,0.7-0.2,0.8-1.4c0,0,0.2-2.3,0.5-2.8c0,0,0.4-0.7,1-1.1
					c0,0,0.8-0.4,0.8,0.3l-0.3,2.7c0,0-0.3,1.3,0.3,1.5c0,0,0.1,0-0.1,0.1c0,0-3.9,1.6-8.8,4.4c0.3-2.8,0.9-6.7,0.9-6.7
					c0.1-0.6-0.7-0.6-0.7-0.6c-0.8,0-0.9,0.9-0.9,1.3c-0.1,0.4-0.6,3.6-0.6,3.6c-0.3,1.4-1.1,1.4-1.1,1.4c-0.8,0.1-0.3-2.2-0.3-2.2
					c0.2-0.8,0.3-1.5,0.9-2.1c0.6-0.5,0.7-1.2,0.2-1.2c-0.8,0-1.6,0.8-1.6,0.8c-1.4,1.4-1.4,4.8-1.4,4.8c0,1.1,0.7,1.4,0.7,1.4
					c0.9,0.4,2.1-0.3,2.1-0.3c0.3-0.2,0.2,0.1,0.2,0.1l-0.1,0.9c-3.6,2.1-7.7,4.7-11.2,7.7c0,0-1.6,1.2-1,2c0.6,0.8,1.5,0.1,1.9-0.3
					c0,0,3.6-3.7,10.2-7.8l-0.2,2.8c-0.1,1.2-0.5,5.1-0.5,5.1c-0.2,1.5,0.1,1.8,0.1,1.9c0.1,0.2,0.7,0.7,1.4,0.2
					c0.8-0.5,0.4-1.8,0.3-2.4c-0.1-0.6-0.1-1.6-0.1-1.6c0.1-0.8,0.5-6.2,0.5-6.2c0-0.2,0-0.5,0.1-0.9c2.5-1.5,5.4-3,8.7-4.4
					c0,0,1.4-0.6,2.6-0.9c0,0,0.4-0.2,0.9-0.3c0.7-0.2,1.6-0.5,1.8-0.9C279.6,17.3,279.7,17,279.5,16.7z"/>
			</g>
		</g>
		<g id="SKT_00000057122528534173080680000013223340899783127972_">
			<path class="st5" d="M328.4,34.7L328.4,34.7c3,3,4.9,7,5.2,11.5c0.7,10-6.8,18.7-16.8,19.4c-4.7,0.3-9.1-1.2-12.5-3.9l0,0
				c3.6,3.3,8.4,5.2,13.6,4.8c10-0.7,17.5-9.4,16.8-19.4C334.3,42.2,332,37.8,328.4,34.7"/>
			<path class="st5" d="M296.2,55.4c-0.6,0.3-0.7,0.8-0.4,1.6c0.3,0.7,0.7,1,1.2,0.8c0.4-0.1,0.4-0.5,0.3-1.3l-0.1-0.3
				c-0.1-0.8-0.2-1.2-0.1-1.5c0.1-0.4,0.3-0.6,0.7-0.8c0.8-0.3,1.6,0.2,2.1,1.3c0.5,1.2,0.2,2.2-0.7,2.6l-0.2-0.6
				c0.7-0.3,0.8-0.9,0.5-1.8c-0.3-0.7-0.8-1.1-1.3-0.9c-0.4,0.2-0.5,0.5-0.3,1.4l0.1,0.4l0.1,0.3c0.1,0.6,0.1,0.8,0.1,1.1
				c-0.1,0.3-0.3,0.6-0.6,0.7c-0.8,0.3-1.5-0.1-1.9-1.2c-0.4-1.1-0.2-2,0.7-2.4L296.2,55.4z"/>
			<polygon class="st5" points="295.7,48.8 298.4,46.5 298.5,47.4 296.1,49.3 296.9,50.1 298.5,50.1 298.5,50.8 293.9,50.9 
				293.8,50.2 295.7,50.2 295.9,50.2 296.2,50.2 296,50 295.9,49.8 293.8,47.6 293.8,46.7 			"/>
			<path class="st5" d="M297.8,41.6l1.8,0.6l-0.2,0.6l-1.8-0.6l-3.2,1l0.3-0.8l2-0.6l0.2-0.1c0.1,0,0.2,0,0.3-0.1
				c-0.2-0.2-0.2-0.2-0.4-0.5l-1.2-1.7l0.3-0.7L297.8,41.6z"/>
			<polygon class="st5" points="300.9,33 299.9,34.2 302.9,36.6 302.2,37.5 299.2,35.1 298.2,36.3 297.6,35.7 300.3,32.4 			"/>
			<polygon class="st5" points="307.2,28.5 304.9,29.9 305.4,30.8 307.6,29.5 308,30.2 305.8,31.5 306.4,32.5 308.8,31.1 
				309.2,31.8 305.8,33.8 303.5,29.7 306.8,27.8 			"/>
			<path class="st5" d="M316.3,30.4l-1.2,0.1l-0.6-1l-1.9,0.3l-0.3,1.2l-1.2,0.3l1.2-5.1l1.2-0.2L316.3,30.4z M313.6,28
				c-0.3-0.4-0.4-0.6-0.5-1c0,0.3-0.1,0.6-0.2,1.1l-0.2,0.9l1.4-0.2L313.6,28z"/>
			<path class="st5" d="M323.8,31.9l-1-0.4l0.4-1.4c0-0.2,0.1-0.4,0.2-0.7c0.1-0.3,0.1-0.5,0.2-0.7c0.1-0.2,0.1-0.4,0.2-0.6l0.1-0.3
				c-0.3,0.5-0.4,0.6-0.6,1c-0.1,0.2-0.2,0.3-0.3,0.4l-1.3,1.9l-0.9-0.2l-0.3-2.2c0-0.1,0-0.3,0-0.5c0-0.3,0-0.5,0-0.7
				c0-0.1,0-0.3,0-0.6l-0.1,0.6c-0.1,0.6-0.2,0.9-0.4,1.6l-0.4,1.5l-1-0.2l1.2-4.6l1.6,0.3l0.2,2.2c0.1,0.5,0.1,0.9,0,1.5
				c0.2-0.3,0.2-0.5,0.4-0.8c0.1-0.2,0.3-0.4,0.4-0.6l1.2-1.8l1.5,0.5L323.8,31.9z"/>
			<path class="st5" d="M314.9,40.9c-0.6,0.5-1.7,1.6-2.8,2.6l-1.2,1.2c-1-0.2-2-0.3-3-0.3c-2.3,0-4.4,0.6-5.3,1.6
				c-0.4,0.4-0.5,0.8-0.5,1.2c0,1.1,1.3,1.7,1.7,1.8c2,0.8,3.7,0.5,5.5-0.7c1-0.7,2.2-1.8,3.1-2.7c0.7,0.2,1.5,0.4,2.4,0.6l0.8,0.2
				c-1,1-2.1,2.1-3.1,3l-0.1,0.1c-1.4,1.2-2.4,2.1-3.8,2.4c-1,0.2-1.7,0-2-0.1c0,0-0.1,0-0.1,0c0.8,0.7,1.6,1.1,3,1
				c1.3-0.1,2.8-0.9,4.4-2.4l2.1-2l1.5-1.4c0,0,2.9,0.9,2.9,0.9c0,0,0.1,0,0.1,0c0,0-1.8,1.8-1.8,1.8l-1.6,1.6
				c-1.6,1.6-2.5,2.4-3.4,3c-1.5,1.1-2.9,1.7-4,1.8c-0.6,0-1.5,0-2.2-0.4c0,0-0.1,0-0.1,0c0.8,0.7,1.8,1.5,3.4,1.4
				c1.9-0.1,3.6-1,6.2-3.4c1.2-1.1,2.4-2.3,3.4-3.4l1.9-2c1.3,0.3,2.4,0.4,3.7,0.4c1.8,0,3.4-0.9,3.4-1.9c0-0.7-0.6-1.1-1-1.4
				c-0.3-0.2-1.1-0.7-2.3-0.7c-1.4,0-2.8,0.6-4.3,1.8l-1,0.9c0,0-0.4-0.1-0.4-0.1l-2.7-0.8c0.8-0.7,1.5-1.4,2.1-1.9
				c1.5-1.3,3.1-1.9,4.1-1.9c0.7,0,1.9,0,2.4,0.4c0,0,0.1-0.1,0.1-0.1c-1.3-1.1-2.5-1.3-3.4-1.3c-0.9,0-2.4,0.3-4.3,1.7
				c-0.7,0.6-1.7,1.5-2.7,2.6c0,0-1.4-0.4-1.4-0.4l-0.3-0.1l-1.4-0.4c0,0,0.8-0.8,0.8-0.8c1-0.9,1.9-1.8,2.6-2.4
				c2.6-2.2,4.2-2.5,5.3-2.5c1.2,0,2.2,0.3,2.9,0.8c0,0,0.1,0,0.1,0c-1.5-1.3-2.5-1.7-4.3-1.7C318.6,38.4,316.7,39.3,314.9,40.9
				 M304.7,48.6c-0.8-0.1-1.2-0.4-1.2-1c0-0.1,0.1-2.1,4.8-2.4c0.5,0,1.1,0,2,0.1c0,0-0.5,0.5-0.5,0.5l-0.3,0.3
				C308.3,47,306.4,48.8,304.7,48.6 M323.7,47c1.3-0.9,2.5-1.4,3.2-1.4c0.4,0,0.9,0.1,0.9,0.6c0,0.5-0.5,1-1.5,1.3
				c-0.9,0.3-2.2,0.4-3.6,0.2C323.1,47.4,323.4,47.2,323.7,47"/>
			<path class="st5" d="M325.7,28.1c0.2-0.4,0.6-0.6,1-0.4c0.4,0.2,0.6,0.6,0.4,1c-0.2,0.4-0.6,0.6-1,0.4
				C325.8,29,325.6,28.5,325.7,28.1 M327,28.7c0.2-0.3,0.1-0.7-0.3-0.9c-0.3-0.2-0.7-0.1-0.9,0.3c-0.2,0.3,0,0.7,0.3,0.9
				C326.5,29.2,326.9,29.1,327,28.7 M326.6,29l-0.1-0.1l0-0.5l-0.1-0.1l-0.2,0.3l-0.1-0.1l0.4-0.7l0.3,0.2c0.1,0.1,0.2,0.2,0.2,0.3
				c-0.1,0.1-0.2,0.1-0.3,0.1L326.6,29z M326.5,28.3c0.1,0.1,0.2,0.2,0.3,0c0-0.1-0.1-0.1-0.1-0.2l-0.2-0.1l-0.1,0.2L326.5,28.3z"/>
		</g>
	</g>
</g>
</svg>
